<svg width="222" height="58" viewBox="0 0 222 58" fill="none" xmlns="http://www.w3.org/2000/svg">
<path d="M220.797 33.8359C220.028 33.2684 217.135 31.5823 213.066 34.9055C211.549 36.0876 209.678 36.7219 207.757 36.706C203.749 36.706 200.657 33.199 200.657 28.5407C200.657 24.1723 203.464 20.898 207.126 20.898C209.018 20.898 210.788 21.7145 211.654 22.9679L207.586 25.6298C203.444 28.3856 204.53 31.668 205.145 32.8846L205.421 33.3664L220.255 24.1151C219.782 23.0108 219.207 21.953 218.538 20.9552C215.902 17.0644 212.008 14.9782 207.277 14.9782C199.314 14.9782 193.13 21.1266 193.13 29.0592C193.138 30.913 193.51 32.7471 194.226 34.4561C194.941 36.1651 195.986 37.7155 197.301 39.0182C198.615 40.3208 200.173 41.3501 201.885 42.047C203.597 42.7439 205.429 43.0946 207.277 43.079C209.979 43.0843 212.632 42.3503 214.95 40.956C217.525 39.4617 218.958 37.7919 221.02 34.0155L220.797 33.8359Z" fill="white"/>
<path d="M15.0325 14.9782C6.84247 14.9782 1 21.1838 1 29.8635V54C1 54 8.21765 53.5917 8.21765 46.0185V31.0679C8.21765 25.4379 10.7931 22.1596 15.1342 22.1596C18.8692 22.1596 21.7497 25.148 21.7497 29.0021C21.7497 32.8561 18.8692 35.8445 15.2034 35.8445C13.3685 35.8445 11.9485 35.2689 10.0485 33.7175V41.1887C11.8063 42.4288 13.905 43.0894 16.0537 43.079C23.2144 43.079 29.2847 36.6447 29.2847 29.1164C29.2929 21.1838 23.0517 14.9782 15.0325 14.9782Z" fill="white"/>
<path d="M49.2818 22.3719V30.0921C49.2818 34.5177 47.6787 36.7019 44.4686 36.7019C41.4335 36.7019 39.7166 34.5177 39.7166 30.4351V22.3719C39.7166 16.1295 32.4989 15.7376 32.4989 15.7376V30.6106C32.4989 38.3676 37.0232 43.079 44.5826 43.079C51.906 43.079 56.5523 38.3676 56.5523 30.7821V15.7253C56.5523 15.7253 49.2818 16.1173 49.2818 22.3719Z" fill="white"/>
<path d="M129.416 15.7253H124.493C121.112 15.7253 118.765 16.3581 116.588 17.8524C113.097 20.2081 110.746 24.7479 110.746 29.1164C110.799 32.0125 111.739 34.822 113.439 37.1632C114.366 38.4628 115.533 39.5716 116.877 40.4293C119.225 41.8664 121.173 42.3278 125.181 42.3278H129.416C129.416 37.151 126.007 36.0568 124.819 35.8364L124.522 35.7874H124.416C120.498 35.1627 118.313 32.8234 118.313 29.0674C118.313 25.0133 121.011 22.4576 125.47 22.0575C126.93 21.5839 129.416 20.1427 129.416 15.7253Z" fill="white"/>
<path d="M146.028 14.9782C142.299 14.9565 138.715 16.4216 136.062 19.0513C133.409 21.6811 131.906 25.2603 131.882 29.0021C131.882 36.7591 138.237 43.079 146.142 43.079C153.93 43.079 160.289 36.7591 160.289 29.0592C160.289 21.2981 153.93 14.9782 146.028 14.9782ZM146.142 35.8405C144.363 35.8049 142.667 35.0725 141.418 33.7995C140.17 32.5266 139.466 30.8141 139.459 29.0279C139.452 27.2417 140.141 25.5234 141.379 24.24C142.617 22.9567 144.306 22.21 146.085 22.1596C149.747 22.1596 152.729 25.2665 152.729 29.1C152.739 30.8686 152.053 32.5694 150.819 33.8325C149.585 35.0956 147.905 35.8187 146.142 35.8446V35.8405Z" fill="white"/>
<path d="M183.142 10.8711V26.9322C183.142 32.6193 180.562 35.8405 176.225 35.8405C172.503 35.8405 169.638 32.9091 169.638 29.0021C169.638 25.095 172.486 22.1596 176.168 22.1596C178.003 22.1596 179.423 22.7352 181.323 24.2866V16.8154C179.546 15.6152 177.452 14.9754 175.31 14.9782C168.149 14.9782 162.079 21.3553 162.079 28.8837C162.079 36.8734 168.32 43.079 176.339 43.079C184.529 43.079 190.372 36.8734 190.372 28.1978V4.00002H189.66C187.853 4.08167 183.142 4.8737 183.142 10.8711Z" fill="white"/>
<path d="M101.107 34.9055C99.589 36.0862 97.7185 36.719 95.7978 36.7019C91.7902 36.7019 88.6981 33.1949 88.6981 28.5366C88.6981 24.1682 91.5014 20.8939 95.1671 20.8939C97.059 20.8939 98.8289 21.7105 99.6955 22.9638L95.6269 25.6257C91.4851 28.3815 92.5714 31.6639 93.1858 32.8806L93.4624 33.3623L108.296 24.1111C107.823 23.0068 107.248 21.9489 106.579 20.9511C103.935 17.0644 100.037 14.9782 95.2851 14.9782C87.3229 14.9782 81.1509 21.1471 81.1509 29.0592C81.1583 30.913 81.5306 32.7471 82.2463 34.4561C82.962 36.1652 84.0071 37.7155 85.3215 39.0182C86.636 40.3208 88.1939 41.3501 89.9058 42.047C91.6177 42.7439 93.45 43.0946 95.2973 43.079C97.9999 43.0843 100.653 42.3504 102.971 40.956C105.546 39.4618 106.978 37.792 109.041 34.0155L108.838 33.8522C108.056 33.2684 105.155 31.5823 101.107 34.9055Z" fill="white"/>
<path d="M75.1091 24.2458C79.9181 22.6127 80.5894 18.5709 80.6667 16.995V16.35H80.3372C76.3296 16.35 71.1748 17.3829 68.9981 20.8899C68.9981 15.8029 63.7089 15.3579 62.3337 15.3252H62.0123V42.3359C62.0123 42.3359 69.2259 42.3074 69.2259 35.9752V32.7867C69.2259 29.9696 69.4578 28.5326 70.0884 27.0383C70.5563 25.8993 73.1521 24.9398 75.1253 24.2458H75.1091Z" fill="white"/>
</svg>
